# xmcd
#
# Track frame offsets:
#	150
#	1735
#	18110
#	21831
#	39104
#	58773
#	78067
#	96609
#	111515
#	132892
#	150723
#	169616
#	194498
#	213005
#
# Disc length: 2985 seconds
#
# Revision: 82682826
# Processed by: cddbd v1.5.1PL0 Copyright (c) Steve Scherf et al.
# Submitted via: EasyCDDAExtractor 8.0.2.1
#
DISCID=a60ba70e
DTITLE=Fat Joe - Da Gangsta - Represent
DYEAR=1993
DGENRE=Rap
TTITLE0=A Word To Da Wise
TTITLE1=Livin' Fat
TTITLE2=My Man Ski
TTITLE3=Bad Bad Man
TTITLE4=Watch The Sound (Featuring Grand Puba and Diamond D)
TTITLE5=Flow Joe
TTITLE6=Da Fat Gangsta
TTITLE7=Shorty Gotta Fat Ass
TTITLE8=This Shit Is Real
TTITLE9=You Must Be Out Of Your Fuckin' Mind (Featuring Apache and Kool G. Rap)
TTITLE10=I Got This In A Smash
TTITLE11=Another Wild Nigger From the Bronx (Featuring Gismo, Keith Keith and Ki
TTITLE11=ng Sun)
TTITLE12=Get On LP
TTITLE13=I'm A Hit That
EXTD=
EXTT0=
EXTT1=
EXTT2=
EXTT3=
EXTT4=
EXTT5=
EXTT6=
EXTT7=
EXTT8=
EXTT9=
EXTT10=
EXTT11=
EXTT12=
EXTT13=
PLAYORDER=
